<svg width="133" height="56" viewBox="0 0 133 56" fill="none" xmlns="http://www.w3.org/2000/svg">
<path d="M0 34.4395V30.3379L2.4375 29.9863L13.2891 0.314453H20.2969L31.0781 29.9863L33.5156 30.3379V34.4395H21.8906V30.3379L24.2578 29.916L22.7578 25.2285H10.7578L9.25781 29.916L11.625 30.3379V34.4395H0ZM12.375 20.1895H21.1406L17.1562 8.49414L16.8281 7.46289H16.6875L16.3359 8.56445L12.375 20.1895Z" fill="black"/>
<path d="M35.7891 34.4395V30.3379L39.4219 29.6348V5.14258L35.7891 4.43945V0.314453H51.9609C54.5859 0.314453 56.8359 0.720703 58.7109 1.5332C60.5859 2.3457 62.0234 3.50977 63.0234 5.02539C64.0391 6.54102 64.5469 8.36133 64.5469 10.4863C64.5469 12.4863 64.0469 14.2754 63.0469 15.8535C62.0469 17.4316 60.6562 18.6738 58.875 19.5801C57.0938 20.4863 55.0391 20.9473 52.7109 20.9629H46.2656V29.6348L49.9219 30.3379V34.4395H35.7891ZM57.75 34.4395L52.0078 19.6973L58.1719 18.1738L63.1406 29.6582L66.0469 30.3379V34.4395H57.75ZM46.2656 15.6895H51.8438C53.8125 15.6895 55.2812 15.2754 56.25 14.4473C57.2344 13.6035 57.7266 12.3848 57.7266 10.791C57.7266 9.21289 57.2422 7.95508 56.2734 7.01758C55.3047 6.06445 53.8672 5.58789 51.9609 5.58789H46.2656V15.6895Z" fill="black"/>
<path d="M68.7891 34.4395V30.3379L72.4219 29.6348V5.14258L68.7891 4.43945V0.314453H95.2734V9.52539H90.0234L89.7188 5.58789H79.2656V14.166H90.8203V19.4395H79.2656V29.1895H90.2812L90.5859 25.1113H95.7891V34.4395H68.7891Z" fill="black"/>
<path d="M99.0938 34.4395V30.3379L101.531 29.9863L112.383 0.314453H119.391L130.172 29.9863L132.609 30.3379V34.4395H120.984V30.3379L123.352 29.916L121.852 25.2285H109.852L108.352 29.916L110.719 30.3379V34.4395H99.0938ZM111.469 20.1895H120.234L116.25 8.49414L115.922 7.46289H115.781L115.43 8.56445L111.469 20.1895Z" fill="black"/>
<path d="M6.54375 55.6855C5.69218 55.6855 4.89531 55.5996 4.15312 55.4277C3.41093 55.2559 2.62187 54.9902 1.78593 54.6309L1.7625 51.6191H3.50859L3.94218 53.4355C4.37968 53.6152 4.80156 53.748 5.20781 53.834C5.62187 53.9121 6.06718 53.9512 6.54375 53.9512C7.48125 53.9512 8.15312 53.7715 8.55937 53.4121C8.96562 53.0527 9.16875 52.6074 9.16875 52.0762C9.16875 51.5762 8.96172 51.1543 8.54765 50.8105C8.1414 50.459 7.39922 50.1621 6.32109 49.9199C4.78984 49.5684 3.66093 49.0996 2.93437 48.5137C2.21562 47.9199 1.85625 47.1309 1.85625 46.1465C1.85625 45.459 2.05547 44.8457 2.4539 44.3066C2.85234 43.7598 3.40703 43.3262 4.11797 43.0059C4.8289 42.6855 5.65703 42.5254 6.60234 42.5254C7.56328 42.5254 8.38359 42.6348 9.06328 42.8535C9.75078 43.0723 10.3484 43.3652 10.8562 43.7324L10.9734 46.627H9.23906L8.86406 44.9395C8.59062 44.7363 8.2664 44.5801 7.8914 44.4707C7.5164 44.3613 7.08672 44.3066 6.60234 44.3066C5.88359 44.3066 5.29765 44.4746 4.84453 44.8105C4.39922 45.1465 4.17656 45.5684 4.17656 46.0762C4.17656 46.373 4.23906 46.6309 4.36406 46.8496C4.49687 47.0684 4.74687 47.2676 5.11406 47.4473C5.48125 47.6191 6.02031 47.791 6.73125 47.9629C8.49687 48.377 9.72734 48.9043 10.4227 49.5449C11.1258 50.1855 11.4773 50.9746 11.4773 51.9121C11.4773 52.9824 11.0789 53.8809 10.282 54.6074C9.49297 55.3262 8.24687 55.6855 6.54375 55.6855Z" fill="black"/>
<path d="M30.638 55.6855C29.4895 55.6855 28.4895 55.4199 27.638 54.8887C26.7864 54.3496 26.1262 53.6035 25.6575 52.6504C25.1887 51.6973 24.9544 50.5957 24.9544 49.3457V48.8535C24.9544 47.6504 25.1809 46.5723 25.6341 45.6191C26.0872 44.666 26.7395 43.9121 27.5911 43.3574C28.4427 42.8027 29.4583 42.5254 30.638 42.5254C31.6614 42.5254 32.5559 42.6934 33.3216 43.0293C34.095 43.3652 34.7434 43.8262 35.2669 44.4121L35.3255 47.459H33.5208L33.1223 45.2441C32.8567 44.9707 32.5247 44.752 32.1262 44.5879C31.7278 44.4238 31.2591 44.3418 30.72 44.3418C30.0325 44.3418 29.427 44.5449 28.9036 44.9512C28.388 45.3574 27.9856 45.9004 27.6966 46.5801C27.4075 47.2598 27.263 48.0176 27.263 48.8535V49.3457C27.263 50.2676 27.3958 51.0684 27.6614 51.748C27.9348 52.4277 28.3216 52.9551 28.8216 53.3301C29.3294 53.6973 29.9309 53.8809 30.6262 53.8809C31.4075 53.8809 32.0559 53.666 32.5716 53.2363C33.0872 52.8066 33.4036 52.2168 33.5208 51.4668H35.595L35.6184 51.5371C35.5794 52.2637 35.3645 52.9434 34.9739 53.5762C34.5833 54.209 34.0247 54.7207 33.2981 55.1113C32.5794 55.4941 31.6927 55.6855 30.638 55.6855Z" fill="black"/>
<path d="M48.6502 55.4395V53.9629L50.5603 53.6348V38.9746L48.6502 38.6465V37.1582H52.8689V44.4473C53.3064 43.8379 53.8416 43.3652 54.4744 43.0293C55.1072 42.6934 55.8103 42.5254 56.5837 42.5254C57.9431 42.5254 58.9978 42.9316 59.7478 43.7441C60.4978 44.5566 60.8728 45.8066 60.8728 47.4941V53.6348L62.783 53.9629V55.4395H56.6541V53.9629L58.5642 53.6348V47.4707C58.5642 46.4238 58.3377 45.6504 57.8845 45.1504C57.4392 44.6504 56.7712 44.4004 55.8806 44.4004C55.2478 44.4004 54.6697 44.5527 54.1462 44.8574C53.6306 45.1543 53.2048 45.5605 52.8689 46.0762V53.6348L54.7791 53.9629V55.4395H48.6502Z" fill="black"/>
<path d="M81.428 55.6855C80.2561 55.6855 79.2444 55.4121 78.3928 54.8652C77.5491 54.3105 76.8967 53.5488 76.4358 52.5801C75.9748 51.6035 75.7444 50.4902 75.7444 49.2402V48.9824C75.7444 47.7324 75.9748 46.623 76.4358 45.6543C76.8967 44.6777 77.5491 43.9121 78.3928 43.3574C79.2444 42.8027 80.2483 42.5254 81.4045 42.5254C82.5764 42.5254 83.5842 42.8027 84.428 43.3574C85.2795 43.9121 85.9358 44.6738 86.3967 45.6426C86.8577 46.6113 87.0881 47.7246 87.0881 48.9824V49.2402C87.0881 50.498 86.8577 51.6152 86.3967 52.5918C85.9358 53.5605 85.2834 54.3184 84.4397 54.8652C83.5959 55.4121 82.592 55.6855 81.428 55.6855ZM81.428 53.8809C82.1623 53.8809 82.7756 53.6816 83.2678 53.2832C83.7678 52.877 84.1428 52.3262 84.3928 51.6309C84.6506 50.9277 84.7795 50.1309 84.7795 49.2402V48.9824C84.7795 48.0918 84.6506 47.2988 84.3928 46.6035C84.1428 45.9004 83.7678 45.3496 83.2678 44.9512C82.7678 44.5449 82.1467 44.3418 81.4045 44.3418C80.6702 44.3418 80.053 44.5449 79.553 44.9512C79.053 45.3496 78.678 45.9004 78.428 46.6035C78.178 47.2988 78.053 48.0918 78.053 48.9824V49.2402C78.053 50.1309 78.178 50.9277 78.428 51.6309C78.678 52.3262 79.053 52.877 79.553 53.2832C80.0608 53.6816 80.6858 53.8809 81.428 53.8809Z" fill="black"/>
<path d="M106.542 55.6855C105.37 55.6855 104.358 55.4121 103.507 54.8652C102.663 54.3105 102.01 53.5488 101.55 52.5801C101.089 51.6035 100.858 50.4902 100.858 49.2402V48.9824C100.858 47.7324 101.089 46.623 101.55 45.6543C102.01 44.6777 102.663 43.9121 103.507 43.3574C104.358 42.8027 105.362 42.5254 106.518 42.5254C107.69 42.5254 108.698 42.8027 109.542 43.3574C110.393 43.9121 111.05 44.6738 111.51 45.6426C111.971 46.6113 112.202 47.7246 112.202 48.9824V49.2402C112.202 50.498 111.971 51.6152 111.51 52.5918C111.05 53.5605 110.397 54.3184 109.553 54.8652C108.71 55.4121 107.706 55.6855 106.542 55.6855ZM106.542 53.8809C107.276 53.8809 107.889 53.6816 108.382 53.2832C108.882 52.877 109.257 52.3262 109.507 51.6309C109.764 50.9277 109.893 50.1309 109.893 49.2402V48.9824C109.893 48.0918 109.764 47.2988 109.507 46.6035C109.257 45.9004 108.882 45.3496 108.382 44.9512C107.882 44.5449 107.26 44.3418 106.518 44.3418C105.784 44.3418 105.167 44.5449 104.667 44.9512C104.167 45.3496 103.792 45.9004 103.542 46.6035C103.292 47.2988 103.167 48.0918 103.167 48.9824V49.2402C103.167 50.1309 103.292 50.9277 103.542 51.6309C103.792 52.3262 104.167 52.877 104.667 53.2832C105.175 53.6816 105.8 53.8809 106.542 53.8809Z" fill="black"/>
<path d="M125.152 55.4395V53.9629L127.062 53.6348V38.9746L125.152 38.6465V37.1582H129.37V53.6348L131.28 53.9629V55.4395H125.152Z" fill="black"/>
</svg>
