<svg width="14" height="16" viewBox="0 0 14 16" fill="none" xmlns="http://www.w3.org/2000/svg">
<path d="M0.5 7.13397C-0.166666 7.51887 -0.166667 8.48112 0.5 8.86602L12.5 15.7942C13.1667 16.1791 14 15.698 14 14.9282L14 1.0718C14 0.301996 13.1667 -0.179129 12.5 0.205771L0.5 7.13397Z" fill="black"/>
<path d="M0.5 7.13397C-0.166666 7.51887 -0.166667 8.48112 0.5 8.86602L12.5 15.7942C13.1667 16.1791 14 15.698 14 14.9282L14 1.0718C14 0.301996 13.1667 -0.179129 12.5 0.205771L0.5 7.13397Z" fill="black"/>
<path d="M0.5 7.13397C-0.166666 7.51887 -0.166667 8.48112 0.5 8.86602L12.5 15.7942C13.1667 16.1791 14 15.698 14 14.9282L14 1.0718C14 0.301996 13.1667 -0.179129 12.5 0.205771L0.5 7.13397Z" fill="black"/>
</svg>
